<svg width="100" height="100" xmlns="http://www.w3.org/2000/svg" xmlns:xlink="http://www.w3.org/1999/xlink">
 <!-- Generator: Sketch 58 (84663) - https://sketch.com -->
 <title>icon_install</title>
 <desc>Created with Sketch.</desc>
 <defs>
  <path id="path-1" d="m74.83429,70l11.2875,0c0.94453,0 1.71022,0.77003 1.71022,1.71991l0,14.44728l0,0l7.45776,0c0.94454,0 1.71023,0.77003 1.71023,1.71991c0,0.40326 -0.1409,0.7937 -0.39808,1.10309l-13.87278,16.68949c-0.96926,1.16606 -2.69496,1.32114 -3.85444,0.34639c-0.11843,-0.09956 -0.22827,-0.20901 -0.32834,-0.32719l-14.13818,-16.69669c-0.61238,-0.72319 -0.52585,-1.8087 0.19327,-2.42455c0.30938,-0.26494 0.70246,-0.41045 1.10881,-0.41045l7.41381,0l0,0l0,-14.44728c0,-0.94988 0.76569,-1.71991 1.71022,-1.71991z"/>
 </defs>
 <g>
  <title>background</title>
  <rect fill="none" id="canvas_background" height="102" width="102" y="-1" x="-1"/>
 </g>
 <g>
  <title>Layer 1</title>
  <g fill-rule="evenodd" fill="none" id="软件包安装器">
   <g id="01选择文件">
    <g id="anzhuangbao备份">
     <path fill="#FFFFFF" id="路径" d="m90,28l0,47.42002l0,6.57998c0,3.31371 -2.68629,6 -6,6l-66,0c-3.31371,0 -6,-2.68629 -6,-6l0,-54l0,0l78,0z"/>
     <path fill="#FFFFFF" id="路径" d="m22.40002,28l-6.50411,0l0,0l-3.89591,0l8.62548,-13.26994c1.10679,-1.70275 2.9998,-2.73006 5.03066,-2.73006l50.68772,0c2.03086,0 3.92387,1.02731 5.03066,2.73006l8.62548,13.26994l0,0l-4.0175,0l-6.98727,0l-56.59521,0z"/>
     <path fill-rule="nonzero" fill="#EBEBEB" id="形状" d="m12,28l8.62548,-13.26994c1.10679,-1.70275 2.9998,-2.73006 5.03066,-2.73006l50.68772,0c2.03086,0 3.92387,1.02731 5.03066,2.73006l8.62548,13.26994l0,54c0,3.31371 -2.68629,6 -6,6l-66,0c-3.31371,0 -6,-2.68629 -6,-6l0,-54zm73.0544,2.79996l-68.19739,0c-1.10457,0 -2,0.89543 -2,2l0,49.43171c0,1.10457 0.89543,2 2,2l68.19739,0c1.10457,0 2,-0.89543 2,-2l0,-49.43171c0,-1.10457 -0.89543,-2 -2,-2zm-73.0544,-2.79996l74.90524,0l-8.11544,-12.12366c-0.37123,-0.55459 -0.99464,-0.88747 -1.66201,-0.88747l-52.18217,0c-0.67385,0 -1.30241,0.33934 -1.67211,0.90272l-7.94584,12.10841l-3.32767,0z"/>
     <mask transform="translate(-2,3) translate(1,-1) translate(-28,-32) translate(160,82) translate(-160,-82) " id="mask-2">
      <use id="svg_1" xlink:href="#path-1"/>
     </mask>
     <use x="-29" y="-30" xlink:href="#path-1" fill-rule="nonzero" fill="#E6E6E6" id="deepin-deb-installer-m备份-2"/>
    </g>
   </g>
  </g>
 </g>
</svg>